<mxfile host="app.diagrams.net" modified="2024-01-23T06:42:40.287Z" agent="Mozilla/5.0 (Windows NT 10.0; Win64; x64) AppleWebKit/537.36 (KHTML, like Gecko) Chrome/120.0.0.0 Safari/537.36" etag="t9fjo1xd5VvQP8DNWd0s" version="22.1.21" type="github">
  <diagram name="Страница — 1" id="JPLkTewBhY2gH9qiusmN">
    <mxGraphModel dx="1050" dy="541" grid="1" gridSize="10" guides="1" tooltips="1" connect="1" arrows="1" fold="1" page="1" pageScale="1" pageWidth="827" pageHeight="1169" math="0" shadow="0">
      <root>
        <mxCell id="0" />
        <mxCell id="1" parent="0" />
        <mxCell id="vT_UenHWCE5KFbVJDAdU-1" value="musical genres" style="rounded=0;whiteSpace=wrap;html=1;" vertex="1" parent="1">
          <mxGeometry x="240" y="140" width="120" height="60" as="geometry" />
        </mxCell>
        <mxCell id="vT_UenHWCE5KFbVJDAdU-2" value="" style="endArrow=classic;html=1;rounded=0;exitX=1;exitY=0.5;exitDx=0;exitDy=0;" edge="1" parent="1" source="vT_UenHWCE5KFbVJDAdU-1" target="vT_UenHWCE5KFbVJDAdU-3">
          <mxGeometry width="50" height="50" relative="1" as="geometry">
            <mxPoint x="380" y="170" as="sourcePoint" />
            <mxPoint x="440" y="230" as="targetPoint" />
            <Array as="points">
              <mxPoint x="440" y="170" />
            </Array>
          </mxGeometry>
        </mxCell>
        <mxCell id="vT_UenHWCE5KFbVJDAdU-3" value="list of performers" style="rounded=0;whiteSpace=wrap;html=1;" vertex="1" parent="1">
          <mxGeometry x="380" y="240" width="120" height="60" as="geometry" />
        </mxCell>
        <mxCell id="vT_UenHWCE5KFbVJDAdU-4" value="" style="endArrow=classic;html=1;rounded=0;exitX=0.5;exitY=1;exitDx=0;exitDy=0;" edge="1" parent="1" source="vT_UenHWCE5KFbVJDAdU-3" target="vT_UenHWCE5KFbVJDAdU-5">
          <mxGeometry width="50" height="50" relative="1" as="geometry">
            <mxPoint x="390" y="310" as="sourcePoint" />
            <mxPoint x="320" y="360" as="targetPoint" />
            <Array as="points">
              <mxPoint x="440" y="360" />
            </Array>
          </mxGeometry>
        </mxCell>
        <mxCell id="vT_UenHWCE5KFbVJDAdU-5" value="album list" style="rounded=0;whiteSpace=wrap;html=1;" vertex="1" parent="1">
          <mxGeometry x="380" y="480" width="120" height="60" as="geometry" />
        </mxCell>
        <mxCell id="vT_UenHWCE5KFbVJDAdU-6" value="" style="endArrow=classic;html=1;rounded=0;exitX=0.5;exitY=1;exitDx=0;exitDy=0;" edge="1" parent="1" source="vT_UenHWCE5KFbVJDAdU-5" target="vT_UenHWCE5KFbVJDAdU-7">
          <mxGeometry width="50" height="50" relative="1" as="geometry">
            <mxPoint x="390" y="310" as="sourcePoint" />
            <mxPoint x="260" y="480" as="targetPoint" />
          </mxGeometry>
        </mxCell>
        <mxCell id="vT_UenHWCE5KFbVJDAdU-7" value="track list" style="rounded=0;whiteSpace=wrap;html=1;" vertex="1" parent="1">
          <mxGeometry x="380" y="790" width="120" height="60" as="geometry" />
        </mxCell>
        <mxCell id="vT_UenHWCE5KFbVJDAdU-8" value="name" style="rhombus;whiteSpace=wrap;html=1;rounded=0;" vertex="1" parent="1">
          <mxGeometry x="760" y="30" width="80" height="80" as="geometry" />
        </mxCell>
        <mxCell id="vT_UenHWCE5KFbVJDAdU-37" value="" style="edgeStyle=orthogonalEdgeStyle;rounded=0;orthogonalLoop=1;jettySize=auto;html=1;" edge="1" parent="1" source="vT_UenHWCE5KFbVJDAdU-10" target="vT_UenHWCE5KFbVJDAdU-3">
          <mxGeometry relative="1" as="geometry" />
        </mxCell>
        <mxCell id="vT_UenHWCE5KFbVJDAdU-10" value="name" style="rhombus;whiteSpace=wrap;html=1;rounded=0;" vertex="1" parent="1">
          <mxGeometry x="600" y="230" width="80" height="80" as="geometry" />
        </mxCell>
        <mxCell id="vT_UenHWCE5KFbVJDAdU-36" value="" style="edgeStyle=orthogonalEdgeStyle;rounded=0;orthogonalLoop=1;jettySize=auto;html=1;" edge="1" parent="1" source="vT_UenHWCE5KFbVJDAdU-12" target="vT_UenHWCE5KFbVJDAdU-10">
          <mxGeometry relative="1" as="geometry" />
        </mxCell>
        <mxCell id="vT_UenHWCE5KFbVJDAdU-12" value="genre name" style="ellipse;whiteSpace=wrap;html=1;rounded=0;" vertex="1" parent="1">
          <mxGeometry x="760" y="230" width="80" height="80" as="geometry" />
        </mxCell>
        <mxCell id="vT_UenHWCE5KFbVJDAdU-29" value="" style="edgeStyle=orthogonalEdgeStyle;rounded=0;orthogonalLoop=1;jettySize=auto;html=1;" edge="1" parent="1" source="vT_UenHWCE5KFbVJDAdU-14" target="vT_UenHWCE5KFbVJDAdU-5">
          <mxGeometry relative="1" as="geometry" />
        </mxCell>
        <mxCell id="vT_UenHWCE5KFbVJDAdU-14" value="name" style="rhombus;whiteSpace=wrap;html=1;rounded=0;" vertex="1" parent="1">
          <mxGeometry x="580" y="470" width="80" height="80" as="geometry" />
        </mxCell>
        <mxCell id="vT_UenHWCE5KFbVJDAdU-28" value="" style="edgeStyle=orthogonalEdgeStyle;rounded=0;orthogonalLoop=1;jettySize=auto;html=1;" edge="1" parent="1" source="vT_UenHWCE5KFbVJDAdU-16" target="vT_UenHWCE5KFbVJDAdU-14">
          <mxGeometry relative="1" as="geometry" />
        </mxCell>
        <mxCell id="vT_UenHWCE5KFbVJDAdU-16" value="year of issue" style="ellipse;whiteSpace=wrap;html=1;rounded=0;" vertex="1" parent="1">
          <mxGeometry x="770" y="470" width="80" height="80" as="geometry" />
        </mxCell>
        <mxCell id="vT_UenHWCE5KFbVJDAdU-18" value="executor" style="shape=parallelogram;perimeter=parallelogramPerimeter;whiteSpace=wrap;html=1;fixedSize=1;rounded=0;" vertex="1" parent="1">
          <mxGeometry x="750" y="370" width="120" height="60" as="geometry" />
        </mxCell>
        <mxCell id="vT_UenHWCE5KFbVJDAdU-20" value="name" style="rhombus;whiteSpace=wrap;html=1;rounded=0;" vertex="1" parent="1">
          <mxGeometry x="600" y="780" width="80" height="80" as="geometry" />
        </mxCell>
        <mxCell id="vT_UenHWCE5KFbVJDAdU-22" value="track duration" style="ellipse;whiteSpace=wrap;html=1;rounded=0;" vertex="1" parent="1">
          <mxGeometry x="800" y="780" width="80" height="80" as="geometry" />
        </mxCell>
        <mxCell id="vT_UenHWCE5KFbVJDAdU-31" value="" style="edgeStyle=orthogonalEdgeStyle;rounded=0;orthogonalLoop=1;jettySize=auto;html=1;" edge="1" parent="1" source="vT_UenHWCE5KFbVJDAdU-24" target="vT_UenHWCE5KFbVJDAdU-22">
          <mxGeometry relative="1" as="geometry" />
        </mxCell>
        <mxCell id="vT_UenHWCE5KFbVJDAdU-24" value="album" style="shape=parallelogram;perimeter=parallelogramPerimeter;whiteSpace=wrap;html=1;fixedSize=1;rounded=0;" vertex="1" parent="1">
          <mxGeometry x="780" y="640" width="120" height="60" as="geometry" />
        </mxCell>
        <mxCell id="vT_UenHWCE5KFbVJDAdU-26" value="" style="endArrow=classic;html=1;rounded=0;exitX=0.5;exitY=1;exitDx=0;exitDy=0;" edge="1" parent="1" source="vT_UenHWCE5KFbVJDAdU-10" target="vT_UenHWCE5KFbVJDAdU-18">
          <mxGeometry width="50" height="50" relative="1" as="geometry">
            <mxPoint x="390" y="510" as="sourcePoint" />
            <mxPoint x="440" y="460" as="targetPoint" />
            <Array as="points">
              <mxPoint x="640" y="400" />
            </Array>
          </mxGeometry>
        </mxCell>
        <mxCell id="vT_UenHWCE5KFbVJDAdU-27" value="" style="endArrow=classic;html=1;rounded=0;entryX=0.5;entryY=0;entryDx=0;entryDy=0;" edge="1" parent="1" source="vT_UenHWCE5KFbVJDAdU-18" target="vT_UenHWCE5KFbVJDAdU-16">
          <mxGeometry width="50" height="50" relative="1" as="geometry">
            <mxPoint x="390" y="510" as="sourcePoint" />
            <mxPoint x="440" y="460" as="targetPoint" />
          </mxGeometry>
        </mxCell>
        <mxCell id="vT_UenHWCE5KFbVJDAdU-30" value="" style="endArrow=classic;html=1;rounded=0;exitX=0.5;exitY=1;exitDx=0;exitDy=0;" edge="1" parent="1" source="vT_UenHWCE5KFbVJDAdU-14" target="vT_UenHWCE5KFbVJDAdU-24">
          <mxGeometry width="50" height="50" relative="1" as="geometry">
            <mxPoint x="390" y="710" as="sourcePoint" />
            <mxPoint x="440" y="660" as="targetPoint" />
            <Array as="points">
              <mxPoint x="620" y="670" />
            </Array>
          </mxGeometry>
        </mxCell>
        <mxCell id="vT_UenHWCE5KFbVJDAdU-32" value="" style="endArrow=classic;html=1;rounded=0;exitX=0;exitY=0.5;exitDx=0;exitDy=0;entryX=1;entryY=0.5;entryDx=0;entryDy=0;" edge="1" parent="1" source="vT_UenHWCE5KFbVJDAdU-22" target="vT_UenHWCE5KFbVJDAdU-20">
          <mxGeometry width="50" height="50" relative="1" as="geometry">
            <mxPoint x="390" y="710" as="sourcePoint" />
            <mxPoint x="440" y="660" as="targetPoint" />
          </mxGeometry>
        </mxCell>
        <mxCell id="vT_UenHWCE5KFbVJDAdU-33" value="" style="endArrow=classic;html=1;rounded=0;exitX=0;exitY=0.5;exitDx=0;exitDy=0;entryX=1;entryY=0.5;entryDx=0;entryDy=0;" edge="1" parent="1" source="vT_UenHWCE5KFbVJDAdU-20" target="vT_UenHWCE5KFbVJDAdU-7">
          <mxGeometry width="50" height="50" relative="1" as="geometry">
            <mxPoint x="390" y="710" as="sourcePoint" />
            <mxPoint x="440" y="660" as="targetPoint" />
          </mxGeometry>
        </mxCell>
        <mxCell id="vT_UenHWCE5KFbVJDAdU-34" value="" style="endArrow=classic;html=1;rounded=0;exitX=0.5;exitY=0;exitDx=0;exitDy=0;entryX=0;entryY=0.5;entryDx=0;entryDy=0;" edge="1" parent="1" source="vT_UenHWCE5KFbVJDAdU-1" target="vT_UenHWCE5KFbVJDAdU-8">
          <mxGeometry width="50" height="50" relative="1" as="geometry">
            <mxPoint x="390" y="210" as="sourcePoint" />
            <mxPoint x="440" y="160" as="targetPoint" />
            <Array as="points">
              <mxPoint x="300" y="70" />
            </Array>
          </mxGeometry>
        </mxCell>
        <mxCell id="vT_UenHWCE5KFbVJDAdU-35" value="" style="endArrow=classic;html=1;rounded=0;exitX=0.5;exitY=1;exitDx=0;exitDy=0;entryX=0.5;entryY=0;entryDx=0;entryDy=0;" edge="1" parent="1" source="vT_UenHWCE5KFbVJDAdU-8" target="vT_UenHWCE5KFbVJDAdU-12">
          <mxGeometry width="50" height="50" relative="1" as="geometry">
            <mxPoint x="390" y="310" as="sourcePoint" />
            <mxPoint x="440" y="260" as="targetPoint" />
          </mxGeometry>
        </mxCell>
      </root>
    </mxGraphModel>
  </diagram>
</mxfile>
